<svg xmlns="http://www.w3.org/2000/svg" version="1.1" xmlns:xlink="http://www.w3.org/1999/xlink" xmlns:svgjs="http://svgjs.dev/svgjs" width="1000" height="1000" viewBox="0 0 1000 1000"><rect width="1000" height="1000" fill="#4d331f"></rect><g transform="matrix(0.7,0,0,0.7,149.57575757575756,282.1265587044535)"><svg viewBox="0 0 396 247" data-background-color="#4d331f" preserveAspectRatio="xMidYMid meet" height="623" width="1000" xmlns="http://www.w3.org/2000/svg" xmlns:xlink="http://www.w3.org/1999/xlink"><g id="tight-bounds" transform="matrix(1,0,0,1,0.2400000000000091,-0.09999999999999432)"><svg viewBox="0 0 395.52 247.2" height="247.2" width="395.52"><g><svg></svg></g><g><svg viewBox="0 0 395.52 247.2" height="247.2" width="395.52"><g><path xmlns="http://www.w3.org/2000/svg" d="M55.039 247.2l40.569-70.267 5.194 0-37.829 65.522h269.574l-37.829-65.522 5.194 0 40.569 70.267zM197.76 0l40.569 70.267-5.195 0-35.374-61.27-35.374 61.27-5.195 0z" fill="#ffffff" fill-rule="nonzero" stroke="none" stroke-width="1" stroke-linecap="butt" stroke-linejoin="miter" stroke-miterlimit="10" stroke-dasharray="" stroke-dashoffset="0" font-family="none" font-weight="none" font-size="none" text-anchor="none" style="mix-blend-mode: normal" data-fill-palette-color="tertiary"></path></g><g transform="matrix(1,0,0,1,0,85.50506186726659)"><svg viewBox="0 0 395.52 76.18987626546681" height="76.18987626546681" width="395.52"><g><svg viewBox="0 0 395.52 76.18987626546681" height="76.18987626546681" width="395.52"><g><svg viewBox="0 0 395.52 76.18987626546681" height="76.18987626546681" width="395.52"><g><svg viewBox="0 0 395.52 76.18987626546681" height="76.18987626546681" width="395.52"><g id="textblocktransform"><svg viewBox="0 0 395.52 76.18987626546681" height="76.18987626546681" width="395.52" id="textblock"><g><svg viewBox="0 0 395.52 76.18987626546681" height="76.18987626546681" width="395.52"><g transform="matrix(1,0,0,1,0,0)"><svg width="395.52" viewBox="-0.10000000149011612 -33.45000076293945 173.62001037597656 33.45000076293945" height="76.18987626546681" data-palette-color="#ffffff"><path d="M10.69-33.45L18.21-33.45Q20.68-33.45 22.68-32.71 24.68-31.98 26.09-30.71 27.49-29.44 28.25-27.75 29-26.05 29-24.15L29-24.15 29-9.3Q29-7.4 28.25-5.7 27.49-4 26.09-2.73 24.68-1.46 22.68-0.73 20.68 0 18.21 0L18.21 0 10.69 0Q8.23 0 6.23-0.73 4.22-1.46 2.82-2.73 1.42-4 0.66-5.7-0.1-7.4-0.1-9.3L-0.1-9.3-0.1-24.15Q-0.1-26.05 0.66-27.75 1.42-29.44 2.82-30.71 4.22-31.98 6.23-32.71 8.23-33.45 10.69-33.45L10.69-33.45ZM22.8-14.99L22.8-18.7 22.46-20.8 20.9-22.34 18.36-22.61 12.89-22.61 11.4-22.9Q11.28-23.32 11.23-23.65 11.18-23.97 11.06-24.34L11.06-24.34 11.06-26.9 11.4-28.34 13.01-28.66 19.21-28.66 21.51-28.2 22.09-30.86 19.26-31.25 12.84-31.25 10.4-30.91 8.81-29.35 8.5-27.29 8.5-23.95 8.81-21.9 10.4-20.36 12.84-20.04 18.36-20.04 19.85-19.8Q19.92-19.43 20.02-19.12 20.12-18.8 20.19-18.46L20.19-18.46 20.19-15.26Q20.14-14.94 20.03-14.58 19.92-14.21 19.85-13.89L19.85-13.89 18.26-13.65 12.21-13.65 9.81-14.04 9.2-11.4 12.06-11.06 18.41-11.06 20.9-11.35 22.46-12.89 22.8-14.99ZM52.19-11.06L52.19-31.25 49.66-31.25 49.66-22.71 39.5-22.71 39.5-31.25 36.91-31.25 36.91-11.06 39.5-11.06 39.5-20.14 49.66-20.14 49.66-11.06 52.19-11.06ZM39.6-33.45L47.12-33.45Q49.58-33.45 51.58-32.71 53.59-31.98 54.99-30.71 56.39-29.44 57.15-27.75 57.91-26.05 57.91-24.15L57.91-24.15 57.91-9.3Q57.91-7.4 57.15-5.7 56.39-4 54.99-2.73 53.59-1.46 51.58-0.73 49.58 0 47.12 0L47.12 0 39.6 0Q37.13 0 35.13-0.73 33.13-1.46 31.72-2.73 30.32-4 29.56-5.7 28.81-7.4 28.81-9.3L28.81-9.3 28.81-24.15Q28.81-26.05 29.56-27.75 30.32-29.44 31.72-30.71 33.13-31.98 35.13-32.71 37.13-33.45 39.6-33.45L39.6-33.45ZM68.5-33.45L76.02-33.45Q78.49-33.45 80.49-32.71 82.49-31.98 83.89-30.71 85.3-29.44 86.05-27.75 86.81-26.05 86.81-24.15L86.81-24.15 86.81-9.3Q86.81-7.4 86.05-5.7 85.3-4 83.89-2.73 82.49-1.46 80.49-0.73 78.49 0 76.02 0L76.02 0 68.5 0Q66.04 0 64.03-0.73 62.03-1.46 60.63-2.73 59.22-4 58.47-5.7 57.71-7.4 57.71-9.3L57.71-9.3 57.71-24.15Q57.71-26.05 58.47-27.75 59.22-29.44 60.63-30.71 62.03-31.98 64.03-32.71 66.04-33.45 68.5-33.45L68.5-33.45ZM81.05-14.99L81.05-27.29 80.71-29.35 79.17-30.91 76.66-31.25 70.11-31.25 67.62-30.91 66.06-29.35 65.77-27.29 65.77-14.99 66.06-12.89 67.67-11.35 70.11-11.06 76.66-11.06 79.17-11.35 80.71-12.89 81.05-14.99ZM78.46-15.26L78.12-13.89 76.51-13.65 70.26-13.65 68.67-13.89 68.31-15.36 68.31-27.05 68.55-28.39 70.26-28.66 76.51-28.66 78.22-28.39 78.46-26.95 78.46-15.26ZM97.4-33.45L104.92-33.45Q107.39-33.45 109.39-32.71 111.39-31.98 112.8-30.71 114.2-29.44 114.96-27.75 115.72-26.05 115.72-24.15L115.72-24.15 115.72-9.3Q115.72-7.4 114.96-5.7 114.2-4 112.8-2.73 111.39-1.46 109.39-0.73 107.39 0 104.92 0L104.92 0 97.4 0Q94.94 0 92.94-0.73 90.93-1.46 89.53-2.73 88.13-4 87.37-5.7 86.61-7.4 86.61-9.3L86.61-9.3 86.61-24.15Q86.61-26.05 87.37-27.75 88.13-29.44 89.53-30.71 90.93-31.98 92.94-32.71 94.94-33.45 97.4-33.45L97.4-33.45ZM109.42-22.19L109.42-27.29 109.07-29.35 107.51-30.91 105.02-31.25 95.92-31.25 95.92-11.06 98.45-11.06 98.45-18.26 105.02-18.26 107.51-18.55 109.07-20.09 109.42-22.19ZM106.8-22.46L106.46-21.09 104.88-20.85 98.45-20.85 98.45-28.66 104.88-28.66 106.56-28.39 106.8-26.95 106.8-22.46ZM126.31-33.45L133.83-33.45Q136.29-33.45 138.3-32.71 140.3-31.98 141.7-30.71 143.11-29.44 143.86-27.75 144.62-26.05 144.62-24.15L144.62-24.15 144.62-9.3Q144.62-7.4 143.86-5.7 143.11-4 141.7-2.73 140.3-1.46 138.3-0.73 136.29 0 133.83 0L133.83 0 126.31 0Q123.84 0 121.84-0.73 119.84-1.46 118.43-2.73 117.03-4 116.27-5.7 115.52-7.4 115.52-9.3L115.52-9.3 115.52-24.15Q115.52-26.05 116.27-27.75 117.03-29.44 118.43-30.71 119.84-31.98 121.84-32.71 123.84-33.45 126.31-33.45L126.31-33.45ZM138.32-22.19L138.32-27.29 137.98-29.35 136.42-30.91 133.93-31.25 124.82-31.25 124.82-11.06 127.36-11.06 127.36-18.26 133.93-18.26 136.42-18.55 137.98-20.09 138.32-22.19ZM135.71-22.46L135.37-21.09 133.78-20.85 127.36-20.85 127.36-28.66 133.78-28.66 135.46-28.39 135.71-26.95 135.71-22.46ZM160.07-20.29L155.72-31.25 152.67-31.25 158.78-16.75 158.78-11.06 161.36-11.06 161.36-16.7 167.57-31.25 164.51-31.25 160.07-20.29ZM155.21-33.45L162.73-33.45Q165.2-33.45 167.2-32.71 169.2-31.98 170.61-30.71 172.01-29.44 172.77-27.75 173.52-26.05 173.52-24.15L173.52-24.15 173.52-9.3Q173.52-7.4 172.77-5.7 172.01-4 170.61-2.73 169.2-1.46 167.2-0.73 165.2 0 162.73 0L162.73 0 155.21 0Q152.75 0 150.74-0.73 148.74-1.46 147.34-2.73 145.93-4 145.18-5.7 144.42-7.4 144.42-9.3L144.42-9.3 144.42-24.15Q144.42-26.05 145.18-27.75 145.93-29.44 147.34-30.71 148.74-31.98 150.74-32.71 152.75-33.45 155.21-33.45L155.21-33.45Z" opacity="1" transform="matrix(1,0,0,1,0,0)" fill="#ffffff" class="wordmark-text-0" data-fill-palette-color="primary" id="text-0"></path></svg></g></svg></g></svg></g></svg></g></svg></g></svg></g></svg></g></svg></g><defs></defs></svg><rect width="395.52" height="247.2" fill="none" stroke="none" visibility="hidden"></rect></g></svg></g></svg>